<svg width="24" height="24" viewBox="0 0 24 24" fill="none" xmlns="http://www.w3.org/2000/svg">
<path d="M22.9145 8.66809C22.8505 9.52709 22.2165 10.2251 21.3605 10.3281C20.615 10.4176 19.6225 10.5001 18.5 10.5001C17.3775 10.5001 16.3855 10.4176 15.6395 10.3281C14.7835 10.2251 14.1495 9.52709 14.0855 8.66809C14.0405 8.05609 14 7.34809 14 6.75009C14 4.65109 15.6875 3.02509 17.7865 3.00359C18.2622 2.9988 18.7378 2.9988 19.2135 3.00359C21.3125 3.02459 23 4.65109 23 6.75009C23 7.34759 22.96 8.05609 22.9145 8.66809Z" stroke="#929292" stroke-width="1.5"/>
<path d="M18.5001 1V3M17.0001 6.5V7M20.0001 6.5V7M3.21157 13.5C1.25207 10.263 0.816574 7.164 2.74007 5.24C4.66357 3.316 7.76307 3.752 11.0001 5.7115C9.55507 6.5865 8.08157 7.7655 6.67357 9.1735C5.26557 10.5815 4.08657 12.0545 3.21157 13.5ZM3.21157 13.5C1.25207 16.737 0.816574 19.836 2.74007 21.76C4.66357 23.684 7.76307 23.248 11.0001 21.2885M3.21157 13.5C4.08657 14.945 5.26557 16.4185 6.67357 17.8265C8.08157 19.2345 9.55457 20.4135 11.0001 21.2885M11.0001 21.2885C14.2371 23.248 17.3361 23.6835 19.2601 21.76C21.1841 19.8365 20.7481 16.737 18.7886 13.5C17.9136 14.945 16.7346 16.4185 15.3266 17.8265C13.9186 19.2345 12.4456 20.4135 11.0001 21.2885ZM8.50007 13.5C8.50007 14.163 8.76347 14.7989 9.23231 15.2678C9.70115 15.7366 10.337 16 11.0001 16C11.6631 16 12.299 15.7366 12.7678 15.2678C13.2367 14.7989 13.5001 14.163 13.5001 13.5C13.5001 12.837 13.2367 12.2011 12.7678 11.7322C12.299 11.2634 11.6631 11 11.0001 11C10.337 11 9.70115 11.2634 9.23231 11.7322C8.76347 12.2011 8.50007 12.837 8.50007 13.5Z" stroke="#929292" stroke-width="1.5" stroke-linecap="round" stroke-linejoin="round"/>
</svg>
